<?xml version="1.0" encoding="UTF-8" standalone="no"?>
<svg
   version="1.0"
   width="289.32211pt"
   height="296.11215pt"
   viewBox="0 0 289.32211 296.11215"
   preserveAspectRatio="xMidYMid"
   id="svg2"
   xmlns="http://www.w3.org/2000/svg"
   xmlns:svg="http://www.w3.org/2000/svg">
  <defs
     id="defs2" />
  <g
     transform="matrix(0.1,0,0,-0.1,-159.15864,458.1)"
     fill="#000000"
     stroke="none"
     id="g2">
    <path
       d="m 2910,4557 c -14,-16 -29,-23 -41,-20 -14,4 -19,0 -19,-15 0,-13 -6,-19 -17,-18 -12,0 -17,-6 -17,-17 1,-11 -4,-16 -15,-15 -9,2 -16,-4 -16,-12 0,-8 -5,-18 -11,-22 -30,-20 -1,-100 68,-190 16,-20 26,-43 22,-51 -7,-18 162,-242 228,-303 24,-22 80,-60 126,-85 52,-28 82,-50 82,-61 0,-12 17,-21 55,-33 30,-8 55,-18 55,-21 0,-3 -32,-52 -70,-109 -48,-69 -80,-107 -100,-115 -16,-7 -35,-19 -41,-27 -19,-22 -78,-43 -123,-43 -23,0 -47,-5 -54,-12 -6,-6 -13,-10 -15,-7 -2,2 -29,36 -59,74 -76,95 -114,130 -246,224 -118,84 -147,94 -205,72 -32,-12 -444,-285 -477,-316 -14,-12 -40,-30 -57,-39 -18,-9 -33,-21 -33,-26 0,-6 -4,-10 -10,-10 -5,0 -10,11 -10,25 0,32 -17,32 -31,1 l -11,-24 -67,35 c -36,20 -84,56 -106,80 -33,37 -45,44 -70,41 -22,-2 -31,-9 -33,-24 -5,-36 36,-144 87,-229 27,-44 59,-100 71,-125 28,-56 48,-80 69,-80 9,0 39,15 67,34 27,18 59,35 69,37 11,3 21,13 23,23 6,27 43,57 65,52 12,-3 35,10 60,33 50,45 105,75 191,101 36,11 94,42 136,71 l 74,52 22,-28 c 12,-15 43,-64 68,-109 25,-45 72,-124 106,-176 33,-52 63,-105 66,-116 11,-43 -58,-146 -223,-333 -59,-67 -111,-153 -128,-211 -24,-82 -132,-339 -161,-382 -19,-28 -37,-61 -40,-74 -7,-29 -31,-49 -58,-49 -14,0 -26,-12 -38,-37 -22,-45 -74,-86 -183,-140 -101,-51 -115,-63 -115,-103 0,-37 20,-58 74,-75 66,-21 145,-9 216,33 34,20 85,45 113,54 56,18 87,44 87,72 0,42 33,121 50,121 11,0 20,10 23,28 3,16 16,33 29,39 15,7 30,29 42,62 10,29 43,83 72,121 57,73 100,153 110,208 3,18 12,32 20,32 8,0 14,10 15,23 0,12 13,32 28,44 28,22 257,149 429,238 l 93,48 15,-22 c 15,-21 16,-21 46,-4 17,10 70,54 117,97 122,112 175,153 255,193 38,19 104,57 147,84 44,27 85,49 92,49 15,0 59,-45 76,-77 6,-13 18,-23 25,-23 8,0 27,-21 42,-47 15,-27 37,-61 50,-78 12,-16 36,-70 53,-120 17,-49 51,-124 75,-165 24,-41 49,-93 56,-115 7,-22 17,-50 23,-61 6,-15 6,-33 -1,-55 -11,-33 -3,-151 10,-165 14,-13 28,9 28,42 0,40 13,44 36,9 12,-19 15,-37 11,-70 -8,-53 5,-59 28,-14 9,17 19,28 23,25 3,-4 0,-12 -6,-18 -16,-16 -15,-28 2,-28 8,0 23,15 34,33 38,61 37,77 -12,169 -25,47 -43,88 -40,91 8,8 -53,296 -82,388 -14,44 -43,115 -66,157 -27,52 -38,84 -35,101 3,15 -4,47 -17,76 -13,28 -29,68 -36,90 -19,58 -49,116 -76,145 -13,14 -37,59 -54,100 -17,41 -38,82 -46,92 -10,10 -14,25 -10,34 6,16 8,15 29,-3 23,-22 124,-33 112,-13 -4,6 5,10 19,10 32,0 43,17 14,23 -13,2 0,4 29,3 29,-1 57,4 62,9 7,7 -3,10 -32,8 l -42,-2 44,14 c 47,16 77,38 93,70 7,14 3,11 -15,-7 -14,-16 -33,-28 -42,-28 -11,0 -6,11 18,35 40,41 101,138 111,175 7,24 6,24 -9,-2 -19,-33 -39,-38 -30,-7 5,14 3,19 -3,15 -7,-4 -9,7 -6,31 l 5,38 -18,-32 c -9,-18 -20,-33 -25,-33 -11,0 10,51 30,73 13,15 13,18 2,15 -10,-2 -17,9 -21,32 -5,29 -7,30 -9,10 l -2,-25 -8,25 c -7,24 -7,23 -11,-9 -2,-19 -11,-37 -19,-39 -12,-4 -13,-3 -2,10 7,9 10,23 6,32 -3,8 -1,30 5,48 10,30 9,31 -4,14 -8,-11 -15,-23 -15,-27 0,-4 -7,-9 -15,-13 -10,-4 -17,4 -23,27 l -8,32 -7,-32 c -4,-18 -11,-33 -17,-33 -6,0 -8,5 -5,10 3,6 -1,10 -9,10 -22,0 -21,3 14,40 17,18 30,42 30,54 -1,17 -3,15 -14,-10 -14,-32 -36,-53 -36,-35 0,5 5,13 10,16 6,3 10,15 10,26 0,18 -3,17 -25,-9 -14,-16 -36,-32 -50,-34 l -25,-5 25,23 c 18,16 25,32 24,56 -2,29 -2,30 -6,6 -2,-14 -11,-32 -19,-38 -12,-11 -13,-7 -8,21 4,26 3,30 -5,19 -9,-13 -11,-13 -11,2 0,9 -5,20 -10,23 -7,4 -9,-2 -5,-18 6,-23 -9,-39 -40,-42 -5,0 -15,-4 -21,-8 -8,-4 -11,6 -9,36 1,23 0,31 -2,17 -7,-38 -52,-81 -78,-74 -15,4 -24,0 -29,-12 -6,-16 -8,-15 -28,2 -21,19 -21,19 -10,-1 8,-14 6,-27 -5,-49 -10,-19 -13,-45 -10,-72 3,-34 0,-47 -14,-60 -11,-9 -19,-25 -19,-35 0,-9 -12,-26 -27,-37 -21,-15 -27,-29 -29,-62 -2,-47 -9,-58 -28,-45 -7,6 -33,25 -56,43 -24,18 -75,42 -114,53 -39,11 -104,32 -144,46 -40,14 -75,23 -78,20 -15,-14 -91,29 -151,85 -96,91 -223,220 -223,227 1,3 7,17 15,31 8,14 14,42 15,64 0,26 8,48 25,68 l 26,31 -23,24 c -13,14 -35,34 -50,44 l -27,20 z"
       id="path1" />
    <path
       d="m 3939,4224 -24,-27 28,18 c 15,9 27,21 27,26 0,14 -5,11 -31,-17 z"
       id="path2" />
  </g>
</svg>
